<svg id="Delete" xmlns="http://www.w3.org/2000/svg" width="54" height="75" viewBox="0 0 54 75">
  <g id="Subtraction_1" data-name="Subtraction 1" transform="translate(0 0)" fill="rgba(255,0,0,0.4)">
    <path d="M 16.49970054626465 74.49970245361328 L 0.5 74.49970245361328 L 0.5 0.5000012516975403 L 16.49970054626465 0.5000012516975403 C 21.49492073059082 0.5000012516975403 26.3404598236084 1.478211283683777 30.90171051025391 3.407471179962158 C 35.30762100219727 5.271011352539063 39.26462936401367 7.93894100189209 42.66284942626953 11.33715152740479 C 46.06106185913086 14.73537158966064 48.72898864746094 18.69238090515137 50.592529296875 23.09829139709473 C 52.52178955078125 27.65954208374023 53.5 32.50508117675781 53.5 37.50030136108398 C 53.5 42.49552154541016 52.52178955078125 47.34101104736328 50.592529296875 51.90217208862305 C 48.72900009155273 56.3079719543457 46.06106948852539 60.2648811340332 42.66284942626953 63.66299057006836 C 39.26464080810547 67.06108093261719 35.3076286315918 69.72891235351563 30.90172004699707 71.59236145019531 C 26.34048080444336 73.52153015136719 21.49493980407715 74.49970245361328 16.49970054626465 74.49970245361328 Z" stroke="none"/>
    <path d="M 16.49970054626465 73.99970245361328 C 21.42765998840332 73.99970245361328 26.20767021179199 73.03482055664063 30.70694923400879 71.13185882568359 C 35.05326080322266 69.29360961914063 38.95684814453125 66.66175842285156 42.30929946899414 63.30943298339844 C 45.66175842285156 59.95708084106445 48.293701171875 56.05359268188477 50.13203048706055 51.70738983154297 C 52.03507995605469 47.20819091796875 53 42.42824172973633 53 37.50030136108398 C 53 32.57236099243164 52.03506851196289 27.79235076904297 50.13203048706055 23.29306030273438 C 48.293701171875 18.94676208496094 45.66175079345703 15.04316139221191 42.30929183959961 11.69071102142334 C 38.95684051513672 8.338251113891602 35.05324172973633 5.706301212310791 30.70693969726563 3.867971181869507 C 26.20764923095703 1.96493124961853 21.42764091491699 1.000001192092896 16.49970054626465 1.000001192092896 L 1 1.000001192092896 L 1 73.99970245361328 L 16.49970054626465 73.99970245361328 M 16.49970054626465 74.99970245361328 L -3.552713678800501e-15 74.99970245361328 L -3.552713678800501e-15 1.226806602971919e-06 L 16.49970054626465 1.226806602971919e-06 C 21.56218910217285 1.226806602971919e-06 26.4732608795166 0.9915012121200562 31.09649085998535 2.94697117805481 C 35.5620002746582 4.835721015930176 39.57244110107422 7.539641380310059 43.01639938354492 10.98360157012939 C 46.46036148071289 14.42756080627441 49.16427993774414 18.43800163269043 51.05302810668945 22.90351104736328 C 53.00849914550781 27.52674102783203 54 32.43781280517578 54 37.50030136108398 C 54 42.56278991699219 53.00849914550781 47.47381210327148 51.05302810668945 52.09695053100586 C 49.16427993774414 56.56237030029297 46.46036148071289 60.57270050048828 43.01639938354492 64.01654815673828 C 39.57244110107422 67.46038818359375 35.56201171875 70.16419982910156 31.09649085998535 72.05287170410156 C 26.47328948974609 74.00823974609375 21.56221961975098 74.99970245361328 16.49970054626465 74.99970245361328 Z" stroke="none" fill="red"/>
  </g>
  <text id="Slet" transform="translate(6 45.5)" font-size="20" font-family="MSReferenceSansSerif, MS Reference Sans Serif"><tspan x="0" y="0">Slet</tspan></text>
</svg>
